<svg xmlns="http://www.w3.org/2000/svg" viewBox="0 0 250 483"><title>Recurso 2</title><g id="Capa_2" data-name="Capa 2"><g id="Capa_1-2" data-name="Capa 1" fill="#ffffff"><path d="M125.5,478a28.88,28.88,0,0,1-28.73-31.8l8.47-83.11a36.27,36.27,0,0,0,.13-6.37c-1.61-21.25-17.16-40.32-42.67-52.32C26.54,287.38,5,260,5,231.1V204.16l.06-5V15.61C5.06,10.59,12.63,5,23.5,5s18.44,5.59,18.44,10.61V181c0,13,14.19,23.19,32.31,23.19S106.56,194,106.56,181V15.61c0-5,7.57-10.61,18.44-10.61s18.44,5.59,18.44,10.61V181c0,13,14.19,23.19,32.31,23.19S208.06,194,208.06,181V15.61c0-5,7.57-10.61,18.44-10.61s18.44,5.59,18.44,10.61V204.16H245v27.22c0,28.73-21.34,56-57.08,73-25.28,12-40.69,31-42.29,52.16a36,36,0,0,0,.13,6.35l8.47,83.3A28.88,28.88,0,0,1,125.5,478ZM48.64,236a12,12,0,0,0-10.45,6,11.86,11.86,0,0,0-.14,11.9,99.52,99.52,0,0,0,173.91,0,11.88,11.88,0,0,0-.15-11.9,12,12,0,0,0-10.45-6h-.48l-32.75,6.47a221,221,0,0,1-85.3.11L49.12,236Z"/><path d="M226.5,10c8.67,0,13.44,4.21,13.44,5.61V209.16H240v22.22c0,26.75-20.27,52.35-54.23,68.49-26.94,12.81-43.39,33.33-45.12,56.3a40.24,40.24,0,0,0,.14,7.23l8.47,83.31a23.88,23.88,0,1,1-47.51,0l8.46-83.1a40.57,40.57,0,0,0,.14-7.26C108.6,333.25,92,312.66,64.83,299.87l-.09,0C30.46,283.7,10,258,10,231.1V209.16h.06V15.61c0-1.4,4.77-5.61,13.44-5.61s13.44,4.21,13.44,5.61V181c0,15.81,16.39,28.19,37.31,28.19s37.31-12.38,37.31-28.19V15.61c0-1.4,4.77-5.61,13.44-5.61s13.44,4.21,13.44,5.61V181c0,15.81,16.39,28.19,37.31,28.19s37.31-12.38,37.31-28.19V15.61c0-1.4,4.77-5.61,13.44-5.61M125.21,241.68a216.48,216.48,0,0,1-41.42-4l-33.24-6.48L49.6,231h-1a17.06,17.06,0,0,0-15,25.32,104.52,104.52,0,0,0,182.64,0,17.06,17.06,0,0,0-15-25.32h-1l-1,.19-32.26,6.38a217.1,217.1,0,0,1-41.95,4.11M226.5,0c-12.95,0-23.44,7-23.44,15.61V181c0,10.05-12.23,18.19-27.31,18.19S148.44,191,148.44,181V15.61C148.44,7,138,0,125,0s-23.44,7-23.44,15.61V181c0,10.05-12.23,18.19-27.31,18.19S46.94,191,46.94,181V15.61C46.94,7,36.45,0,23.5,0S.06,7,.06,15.61V199.16H0V231.1C0,262,22.55,291,60.48,308.88l.09,0c23.74,11.17,38.36,29,39.81,48.18a30.4,30.4,0,0,1-.12,5.48L91.8,445.69A33.88,33.88,0,0,0,125.5,483h0a33.88,33.88,0,0,0,33.71-37.3l-8.48-83.31a31.25,31.25,0,0,1-.11-5.47c1.44-19.12,15.91-36.83,39.45-48h0C227.68,291,250,262.15,250,231.38V199.16h-.06V15.61C249.94,7,239.45,0,226.5,0ZM125.21,251.68a226.59,226.59,0,0,0,43.89-4.3L201.36,241a7.07,7.07,0,0,1,6.23,10.45,94.52,94.52,0,0,1-165.18,0A7.07,7.07,0,0,1,48.64,241l33.23,6.49a226.6,226.6,0,0,0,43.34,4.19Z"/></g></g></svg>